<?xml version="1.0" standalone="no"?><!DOCTYPE svg PUBLIC "-//W3C//DTD SVG 1.1//EN" "http://www.w3.org/Graphics/SVG/1.1/DTD/svg11.dtd"><svg class="icon" width="48px" height="48.00px" viewBox="0 0 1024 1024" version="1.1" xmlns="http://www.w3.org/2000/svg"><path d="M989.866667 733.866667c0 37.546667-30.72 68.266667-68.266667 68.266667l0 0-34.133333 0c0 37.546667-30.72 68.266667-68.266667 68.266667s-68.266667-30.72-68.266667-68.266667L273.066667 802.133333c0 37.546667-30.72 68.266667-68.266667 68.266667s-68.266667-30.72-68.266667-68.266667L102.4 802.133333l0 0c-37.546667 0-68.266667-30.72-68.266667-68.266667l0-238.933333c0-37.546667 30.72-68.266667 68.266667-68.266667l13.653333 0 47.786667-204.8c0 0 17.066667-68.266667 71.68-68.266667 58.026667 0 546.133333 0 546.133333 0 58.026667 0 71.68 68.266667 71.68 68.266667l47.786667 204.8L921.6 426.666667c37.546667 0 68.266667 30.72 68.266667 68.266667L989.866667 733.866667zM791.893333 221.866667 232.106667 221.866667l-47.786667 204.8 658.773333 0L791.893333 221.866667zM136.533333 494.933333c-20.48 0-34.133333 13.653333-34.133333 34.133333l0 170.666667c0 20.48 13.653333 34.133333 34.133333 34.133333l0 0 750.933333 0 0 0c20.48 0 34.133333-13.653333 34.133333-34.133333l0-170.666667 0 0c0-20.48-13.653333-34.133333-34.133333-34.133333L136.533333 494.933333zM802.133333 665.6c-27.306667 0-51.2-23.893333-51.2-51.2 0-27.306667 23.893333-51.2 51.2-51.2S853.333333 587.093333 853.333333 614.4C853.333333 641.706667 829.44 665.6 802.133333 665.6zM221.866667 665.6C194.56 665.6 170.666667 641.706667 170.666667 614.4c0-27.306667 23.893333-51.2 51.2-51.2S273.066667 587.093333 273.066667 614.4C273.066667 641.706667 249.173333 665.6 221.866667 665.6z" /></svg>